<svg id="Group_9" data-name="Group 9" xmlns="http://www.w3.org/2000/svg" width="56" height="96" viewBox="0 0 56 96">
  <g id="Group_8" data-name="Group 8">
    <path id="Line_2" data-name="Line 2" d="M.111,46.846a3.307,3.307,0,0,0,2.2-.811L52.089,1.727a2.56,2.56,0,0,0,0-3.916,3.389,3.389,0,0,0-4.4,0L-2.089,42.119a2.56,2.56,0,0,0,0,3.916A3.307,3.307,0,0,0,.111,46.846Z" transform="translate(3 3)" fill="#f5f5f5"/>
    <path id="Line_3" data-name="Line 3" d="M49.889,46.846a3.307,3.307,0,0,0,2.2-.811,2.56,2.56,0,0,0,0-3.916L2.311-2.189a3.389,3.389,0,0,0-4.4,0,2.56,2.56,0,0,0,0,3.916L47.689,46.035A3.307,3.307,0,0,0,49.889,46.846Z" transform="translate(3 49.154)" fill="#f5f5f5"/>
  </g>
</svg>
