<svg xmlns="http://www.w3.org/2000/svg" width="24" height="21.911" viewBox="0 0 24 21.911">
  <g id="Group_24" data-name="Group 24" transform="translate(0)">
    <path id="Subtraction_1" data-name="Subtraction 1" d="M10.058,2.514H4.481a2.111,2.111,0,0,0-3.907,0H0V0H10.058V2.514Z" transform="translate(5.043 12.244) rotate(-30)" fill="#141414"/>
    <rect id="Rectangle_20" data-name="Rectangle 20" width="1.191" height="2.117" transform="translate(3.734 13.152) rotate(-30)" fill="#141414"/>
    <rect id="Rectangle_21" data-name="Rectangle 21" width="1.323" height="1.72" transform="translate(2.376 14.242) rotate(-30)" fill="#141414"/>
    <rect id="Rectangle_22" data-name="Rectangle 22" width="1.323" height="1.191" transform="translate(1.018 15.331) rotate(-30)" fill="#141414"/>
    <rect id="Rectangle_23" data-name="Rectangle 23" width="0.662" height="2.514" transform="translate(0 15.155) rotate(-30)" fill="#141414"/>
    <rect id="Rectangle_18" data-name="Rectangle 18" width="5.823" height="5.955" transform="translate(13.351 5.46) rotate(-30)" fill="#141414"/>
    <rect id="Rectangle_19" data-name="Rectangle 19" width="1.588" height="9.264" transform="translate(17.993 0.794) rotate(-30)" fill="#141414"/>
    <path id="Subtraction_2" data-name="Subtraction 2" d="M1.654,3.309A1.655,1.655,0,0,1,1.01.13,1.655,1.655,0,0,1,2.3,3.179,1.644,1.644,0,0,1,1.654,3.309Zm0-2.481a.827.827,0,1,0,.827.827A.828.828,0,0,0,1.654.827Z" transform="translate(6.639 13.156) rotate(-30)" fill="#141414"/>
    <path id="Subtraction_4" data-name="Subtraction 4" d="M1.632,7.286H0L3.643,0,7.286,7.285H5.653L3.643,3.264,1.632,7.286Z" transform="translate(5.571 14.625)" fill="#141414"/>
  </g>
</svg>
