<svg xmlns="http://www.w3.org/2000/svg" width="32" height="32" viewBox="0 0 32 32">
  <path id="Icon_awesome-thumbs-up" data-name="Icon awesome-thumbs-up" d="M6.5,14h-5A1.5,1.5,0,0,0,0,15.5v15A1.5,1.5,0,0,0,1.5,32h5A1.5,1.5,0,0,0,8,30.5v-15A1.5,1.5,0,0,0,6.5,14ZM4,29.5A1.5,1.5,0,1,1,5.5,28,1.5,1.5,0,0,1,4,29.5ZM24,5.091C24,7.742,22.377,9.229,21.92,11h6.358A3.734,3.734,0,0,1,32,14.631a4.525,4.525,0,0,1-1.215,3.075l-.007.007A5.221,5.221,0,0,1,30.2,22.68a4.942,4.942,0,0,1-1.024,4.672,3.318,3.318,0,0,1-.384,2.79C27.513,31.974,24.351,32,21.677,32H21.5a17.942,17.942,0,0,1-7.473-1.983,9.836,9.836,0,0,0-3.291-1.011.75.75,0,0,1-.736-.75V14.9a.749.749,0,0,1,.222-.533c2.476-2.446,3.541-5.037,5.57-7.069a7.569,7.569,0,0,0,1.587-3.681C17.657,2.456,18.239,0,19.5,0,21,0,24,.5,24,5.091Z" fill="#141414"/>
</svg>
